<svg id="visual" viewBox="0 0 900 600" width="900" height="600" xmlns="http://www.w3.org/2000/svg" xmlns:xlink="http://www.w3.org/1999/xlink" version="1.1"><rect x="0" y="0" width="900" height="600" fill="#FF0066"></rect><path d="M0 358L16.7 356.5C33.3 355 66.7 352 100 357.7C133.3 363.3 166.7 377.7 200 375.3C233.3 373 266.7 354 300 345.3C333.3 336.7 366.7 338.3 400 344.3C433.3 350.3 466.7 360.7 500 357.5C533.3 354.3 566.7 337.7 600 335.8C633.3 334 666.7 347 700 355.2C733.3 363.3 766.7 366.7 800 357.8C833.3 349 866.7 328 883.3 317.5L900 307L900 601L883.3 601C866.7 601 833.3 601 800 601C766.7 601 733.3 601 700 601C666.7 601 633.3 601 600 601C566.7 601 533.3 601 500 601C466.7 601 433.3 601 400 601C366.7 601 333.3 601 300 601C266.7 601 233.3 601 200 601C166.7 601 133.3 601 100 601C66.7 601 33.3 601 16.7 601L0 601Z" fill="#fa7268"></path><path d="M0 425L16.7 414.8C33.3 404.7 66.7 384.3 100 372C133.3 359.7 166.7 355.3 200 358C233.3 360.7 266.7 370.3 300 373.5C333.3 376.7 366.7 373.3 400 373.5C433.3 373.7 466.7 377.3 500 377C533.3 376.7 566.7 372.3 600 377.8C633.3 383.3 666.7 398.7 700 404.3C733.3 410 766.7 406 800 401.7C833.3 397.3 866.7 392.7 883.3 390.3L900 388L900 601L883.3 601C866.7 601 833.3 601 800 601C766.7 601 733.3 601 700 601C666.7 601 633.3 601 600 601C566.7 601 533.3 601 500 601C466.7 601 433.3 601 400 601C366.7 601 333.3 601 300 601C266.7 601 233.3 601 200 601C166.7 601 133.3 601 100 601C66.7 601 33.3 601 16.7 601L0 601Z" fill="#f06462"></path><path d="M0 416L16.7 421.8C33.3 427.7 66.7 439.3 100 434.8C133.3 430.3 166.7 409.7 200 398.5C233.3 387.3 266.7 385.7 300 391.5C333.3 397.3 366.7 410.7 400 416.7C433.3 422.7 466.7 421.3 500 425.2C533.3 429 566.7 438 600 434.2C633.3 430.3 666.7 413.7 700 405.8C733.3 398 766.7 399 800 398.7C833.3 398.3 866.7 396.7 883.3 395.8L900 395L900 601L883.3 601C866.7 601 833.3 601 800 601C766.7 601 733.3 601 700 601C666.7 601 633.3 601 600 601C566.7 601 533.3 601 500 601C466.7 601 433.3 601 400 601C366.7 601 333.3 601 300 601C266.7 601 233.3 601 200 601C166.7 601 133.3 601 100 601C66.7 601 33.3 601 16.7 601L0 601Z" fill="#e6555d"></path><path d="M0 482L16.7 472.5C33.3 463 66.7 444 100 444.2C133.3 444.3 166.7 463.7 200 473.2C233.3 482.7 266.7 482.3 300 482.3C333.3 482.3 366.7 482.7 400 481.3C433.3 480 466.7 477 500 474.2C533.3 471.3 566.7 468.7 600 468C633.3 467.3 666.7 468.7 700 469.5C733.3 470.3 766.7 470.7 800 466.8C833.3 463 866.7 455 883.3 451L900 447L900 601L883.3 601C866.7 601 833.3 601 800 601C766.7 601 733.3 601 700 601C666.7 601 633.3 601 600 601C566.7 601 533.3 601 500 601C466.7 601 433.3 601 400 601C366.7 601 333.3 601 300 601C266.7 601 233.3 601 200 601C166.7 601 133.3 601 100 601C66.7 601 33.3 601 16.7 601L0 601Z" fill="#dc4658"></path><path d="M0 497L16.7 497.7C33.3 498.3 66.7 499.7 100 499C133.3 498.3 166.7 495.7 200 489C233.3 482.3 266.7 471.7 300 467C333.3 462.3 366.7 463.7 400 469.3C433.3 475 466.7 485 500 487.3C533.3 489.7 566.7 484.3 600 481.2C633.3 478 666.7 477 700 482.2C733.3 487.3 766.7 498.7 800 498.3C833.3 498 866.7 486 883.3 480L900 474L900 601L883.3 601C866.7 601 833.3 601 800 601C766.7 601 733.3 601 700 601C666.7 601 633.3 601 600 601C566.7 601 533.3 601 500 601C466.7 601 433.3 601 400 601C366.7 601 333.3 601 300 601C266.7 601 233.3 601 200 601C166.7 601 133.3 601 100 601C66.7 601 33.3 601 16.7 601L0 601Z" fill="#d13553"></path><path d="M0 534L16.7 528C33.3 522 66.7 510 100 509.7C133.3 509.3 166.7 520.7 200 523.8C233.3 527 266.7 522 300 517.5C333.3 513 366.7 509 400 508.5C433.3 508 466.7 511 500 517C533.3 523 566.7 532 600 533.5C633.3 535 666.7 529 700 526.2C733.3 523.3 766.7 523.7 800 520.3C833.3 517 866.7 510 883.3 506.5L900 503L900 601L883.3 601C866.7 601 833.3 601 800 601C766.7 601 733.3 601 700 601C666.7 601 633.3 601 600 601C566.7 601 533.3 601 500 601C466.7 601 433.3 601 400 601C366.7 601 333.3 601 300 601C266.7 601 233.3 601 200 601C166.7 601 133.3 601 100 601C66.7 601 33.3 601 16.7 601L0 601Z" fill="#c6224f"></path><path d="M0 541L16.7 541.8C33.3 542.7 66.7 544.3 100 548.7C133.3 553 166.7 560 200 563.8C233.3 567.7 266.7 568.3 300 568.3C333.3 568.3 366.7 567.7 400 563C433.3 558.3 466.7 549.7 500 548.8C533.3 548 566.7 555 600 558.3C633.3 561.7 666.7 561.3 700 561.2C733.3 561 766.7 561 800 562.7C833.3 564.3 866.7 567.7 883.3 569.3L900 571L900 601L883.3 601C866.7 601 833.3 601 800 601C766.7 601 733.3 601 700 601C666.7 601 633.3 601 600 601C566.7 601 533.3 601 500 601C466.7 601 433.3 601 400 601C366.7 601 333.3 601 300 601C266.7 601 233.3 601 200 601C166.7 601 133.3 601 100 601C66.7 601 33.3 601 16.7 601L0 601Z" fill="#bb004b"></path></svg>